<svg xmlns="http://www.w3.org/2000/svg" width="600" height="400" viewBox="0 0 600 400">
  <style>
    .st0{fill:#4A6CF7;}
    .st1{fill:#F1F5FF;}
    .st2{fill:#FFFFFF;}
    .st3{fill:#1E293B;}
    .st4{fill:#E5E7EB;}
    .st5{fill:#6C757D;}
  </style>
  
  <!-- Background -->
  <rect class="st1" x="0" y="0" width="600" height="400" rx="20" ry="20"/>
  
  <!-- Person silhouette -->
  <circle class="st0" cx="300" cy="150" r="80"/>
  <path class="st3" d="M300,240 C230,240 180,290 180,350 L420,350 C420,290 370,240 300,240 Z"/>
  
  <!-- Face features -->
  <circle class="st2" cx="270" cy="140" r="15"/>
  <circle class="st2" cx="330" cy="140" r="15"/>
  <circle class="st3" cx="270" cy="140" r="7"/>
  <circle class="st3" cx="330" cy="140" r="7"/>
  <path class="st2" d="M270,180 Q300,210 330,180" stroke="#FFFFFF" stroke-width="5" fill="none"/>
  
  <!-- Decorative elements -->
  <circle class="st0" cx="100" cy="100" r="30" opacity="0.3"/>
  <circle class="st0" cx="500" cy="300" r="40" opacity="0.3"/>
  <circle class="st0" cx="150" cy="350" r="20" opacity="0.3"/>
  <circle class="st0" cx="450" cy="80" r="25" opacity="0.3"/>
  
  <!-- Skills icons -->
  <rect class="st2" x="50" y="200" width="80" height="80" rx="10" ry="10"/>
  <text x="90" y="250" font-family="Arial" font-size="40" text-anchor="middle" fill="#4A6CF7">H</text>
  
  <rect class="st2" x="150" y="200" width="80" height="80" rx="10" ry="10"/>
  <text x="190" y="250" font-family="Arial" font-size="40" text-anchor="middle" fill="#4A6CF7">C</text>
  
  <rect class="st2" x="450" y="200" width="80" height="80" rx="10" ry="10"/>
  <text x="490" y="250" font-family="Arial" font-size="40" text-anchor="middle" fill="#4A6CF7">J</text>
  
  <!-- Abstract code elements -->
  <rect class="st4" x="50" y="50" width="120" height="10" rx="5" ry="5"/>
  <rect class="st0" x="180" y="50" width="60" height="10" rx="5" ry="5"/>
  <rect class="st4" x="250" y="50" width="40" height="10" rx="5" ry="5"/>
  
  <rect class="st4" x="400" y="70" width="80" height="10" rx="5" ry="5"/>
  <rect class="st0" x="490" y="70" width="60" height="10" rx="5" ry="5"/>
  
  <rect class="st4" x="420" y="130" width="130" height="10" rx="5" ry="5"/>
  <rect class="st0" x="420" y="150" width="80" height="10" rx="5" ry="5"/>
  <rect class="st4" x="510" y="150" width="40" height="10" rx="5" ry="5"/>
</svg>