<svg xmlns="http://www.w3.org/2000/svg" width="600" height="400" viewBox="0 0 600 400">
  <style>
    .st0{fill:#4A6CF7;}
    .st1{fill:#F1F5FF;}
    .st2{fill:#FFFFFF;}
    .st3{fill:#1E293B;}
    .st4{fill:#E5E7EB;}
    .st5{fill:#6C757D;}
  </style>
  
  <!-- Background -->
  <rect class="st1" x="0" y="0" width="600" height="400" rx="20" ry="20"/>
  
  <!-- Envelope -->
  <rect class="st2" x="150" y="100" width="300" height="200" rx="10" ry="10" stroke="#4A6CF7" stroke-width="4" fill="#FFFFFF"/>
  
  <!-- Envelope flap (open) -->
  <path class="st0" d="M150,100 L300,180 L450,100" stroke="#4A6CF7" stroke-width="4" fill="none"/>
  
  <!-- Envelope content -->
  <rect class="st4" x="200" y="150" width="200" height="20" rx="5" ry="5"/>
  <rect class="st4" x="200" y="180" width="150" height="20" rx="5" ry="5"/>
  <rect class="st4" x="200" y="210" width="180" height="20" rx="5" ry="5"/>
  
  <!-- Paper airplane -->
  <path class="st0" d="M500,80 L420,150 L500,220" stroke="#4A6CF7" stroke-width="4" fill="#F1F5FF"/>
  <path class="st0" d="M420,150 L500,150" stroke="#4A6CF7" stroke-width="4" fill="none"/>
  
  <!-- Decorative elements -->
  <circle class="st0" cx="100" cy="100" r="30" opacity="0.3"/>
  <circle class="st0" cx="500" cy="300" r="40" opacity="0.3"/>
  <circle class="st0" cx="150" cy="350" r="20" opacity="0.3"/>
  <circle class="st0" cx="450" cy="80" r="25" opacity="0.3"/>
  
  <!-- Contact icons -->
  <circle class="st0" cx="100" cy="200" r="20"/>
  <path class="st2" d="M90,200 L110,200 M100,190 L100,210" stroke="#FFFFFF" stroke-width="2" fill="none"/>
  
  <circle class="st0" cx="100" cy="250" r="20"/>
  <path class="st2" d="M90,245 L100,255 L110,245" stroke="#FFFFFF" stroke-width="2" fill="none"/>
  
  <circle class="st0" cx="100" cy="300" r="20"/>
  <circle class="st2" cx="100" cy="295" r="3"/>
  <path class="st2" d="M100,300 L100,310" stroke="#FFFFFF" stroke-width="2" fill="none"/>
</svg>