<svg xmlns="http://www.w3.org/2000/svg" width="600" height="400" viewBox="0 0 600 400">
  <style>
    .st0{fill:#4A6CF7;}
    .st1{fill:#F1F5FF;}
    .st2{fill:#FFFFFF;}
    .st3{fill:#1E293B;}
    .st4{fill:#E5E7EB;}
    .st5{fill:#6C757D;}
  </style>
  
  <!-- Background -->
  <rect class="st1" x="0" y="0" width="600" height="400" rx="10" ry="10"/>
  
  <!-- Restaurant website mockup -->
  <rect class="st2" x="50" y="50" width="500" height="300" rx="10" ry="10" stroke="#E5E7EB" stroke-width="2"/>
  
  <!-- Header -->
  <rect class="st3" x="50" y="50" width="500" height="60" rx="10" ry="10"/>
  <rect class="st0" x="80" y="70" width="100" height="20" rx="5" ry="5"/>
  <rect class="st2" x="350" y="70" width="40" height="20" rx="5" ry="5"/>
  <rect class="st2" x="410" y="70" width="40" height="20" rx="5" ry="5"/>
  <rect class="st2" x="470" y="70" width="40" height="20" rx="5" ry="5"/>
  
  <!-- Hero section with food image -->
  <rect class="st4" x="50" y="110" width="500" height="150" rx="0" ry="0"/>
  
  <!-- Food illustrations -->
  <circle class="st2" cx="150" cy="170" r="40"/>
  <circle class="st0" cx="150" cy="170" r="30"/>
  <circle class="st2" cx="150" cy="170" r="20"/>
  
  <circle class="st2" cx="250" cy="170" r="40"/>
  <circle class="st3" cx="250" cy="170" r="30"/>
  <circle class="st2" cx="250" cy="170" r="20"/>
  
  <circle class="st2" cx="350" cy="170" r="40"/>
  <circle class="st0" cx="350" cy="170" r="30"/>
  <circle class="st2" cx="350" cy="170" r="20"/>
  
  <circle class="st2" cx="450" cy="170" r="40"/>
  <circle class="st3" cx="450" cy="170" r="30"/>
  <circle class="st2" cx="450" cy="170" r="20"/>
  
  <!-- Menu section -->
  <rect class="st2" x="80" y="280" width="440" height="50" rx="5" ry="5" stroke="#E5E7EB" stroke-width="1"/>
  <rect class="st3" x="100" y="295" width="100" height="10" rx="5" ry="5"/>
  <rect class="st5" x="100" y="315" width="200" height="5" rx="2.5" ry="2.5"/>
  <rect class="st0" x="400" y="295" width="100" height="20" rx="10" ry="10"/>
  
  <!-- Decorative elements -->
  <circle class="st0" cx="300" cy="240" r="10" opacity="0.5"/>
  <circle class="st0" cx="330" cy="240" r="10" opacity="0.5"/>
  <circle class="st0" cx="270" cy="240" r="10" opacity="0.5"/>
</svg>