<svg xmlns="http://www.w3.org/2000/svg" width="600" height="400" viewBox="0 0 600 400">
  <style>
    .st0{fill:#4A6CF7;}
    .st1{fill:#F1F5FF;}
    .st2{fill:#FFFFFF;}
    .st3{fill:#1E293B;}
    .st4{fill:#E5E7EB;}
    .st5{fill:#6C757D;}
  </style>
  
  <!-- Background -->
  <rect class="st1" x="0" y="0" width="600" height="400" rx="10" ry="10"/>
  
  <!-- E-commerce mockup -->
  <rect class="st2" x="50" y="50" width="500" height="300" rx="10" ry="10" stroke="#E5E7EB" stroke-width="2"/>
  
  <!-- Header -->
  <rect class="st4" x="50" y="50" width="500" height="60" rx="10" ry="10"/>
  <rect class="st0" x="80" y="70" width="100" height="20" rx="5" ry="5"/>
  <rect class="st2" x="350" y="70" width="40" height="20" rx="5" ry="5"/>
  <rect class="st2" x="410" y="70" width="40" height="20" rx="5" ry="5"/>
  <rect class="st2" x="470" y="70" width="40" height="20" rx="5" ry="5"/>
  
  <!-- Hero section -->
  <rect class="st0" x="50" y="110" width="500" height="100" rx="0" ry="0"/>
  <rect class="st2" x="80" y="140" width="200" height="20" rx="5" ry="5"/>
  <rect class="st2" x="80" y="170" width="150" height="10" rx="5" ry="5"/>
  
  <!-- Product grid -->
  <rect class="st2" x="80" y="240" width="100" height="100" rx="5" ry="5" stroke="#E5E7EB" stroke-width="1"/>
  <rect class="st4" x="80" y="240" width="100" height="70" rx="5" ry="5"/>
  <rect class="st3" x="90" y="320" width="80" height="10" rx="5" ry="5"/>
  <rect class="st0" x="90" y="335" width="30" height="10" rx="5" ry="5"/>
  
  <rect class="st2" x="200" y="240" width="100" height="100" rx="5" ry="5" stroke="#E5E7EB" stroke-width="1"/>
  <rect class="st4" x="200" y="240" width="100" height="70" rx="5" ry="5"/>
  <rect class="st3" x="210" y="320" width="80" height="10" rx="5" ry="5"/>
  <rect class="st0" x="210" y="335" width="30" height="10" rx="5" ry="5"/>
  
  <rect class="st2" x="320" y="240" width="100" height="100" rx="5" ry="5" stroke="#E5E7EB" stroke-width="1"/>
  <rect class="st4" x="320" y="240" width="100" height="70" rx="5" ry="5"/>
  <rect class="st3" x="330" y="320" width="80" height="10" rx="5" ry="5"/>
  <rect class="st0" x="330" y="335" width="30" height="10" rx="5" ry="5"/>
  
  <rect class="st2" x="440" y="240" width="100" height="100" rx="5" ry="5" stroke="#E5E7EB" stroke-width="1"/>
  <rect class="st4" x="440" y="240" width="100" height="70" rx="5" ry="5"/>
  <rect class="st3" x="450" y="320" width="80" height="10" rx="5" ry="5"/>
  <rect class="st0" x="450" y="335" width="30" height="10" rx="5" ry="5"/>
  
  <!-- Shopping cart icon -->
  <circle class="st0" cx="520" y="70" r="15"/>
  <path class="st2" d="M515,70 L525,70 M520,65 L520,75 M513,67 L527,67" stroke="#FFFFFF" stroke-width="2" fill="none"/>
</svg>