<svg xmlns="http://www.w3.org/2000/svg" width="600" height="400" viewBox="0 0 600 400">
  <style>
    .st0{fill:#4A6CF7;}
    .st1{fill:#F1F5FF;}
    .st2{fill:#FFFFFF;}
    .st3{fill:#1E293B;}
    .st4{fill:#E5E7EB;}
    .st5{fill:#6C757D;}
  </style>
  
  <!-- Background -->
  <rect class="st1" x="0" y="0" width="600" height="400" rx="10" ry="10"/>
  
  <!-- Portfolio website mockup -->
  <rect class="st2" x="50" y="50" width="500" height="300" rx="10" ry="10" stroke="#E5E7EB" stroke-width="2"/>
  
  <!-- Header -->
  <rect class="st3" x="50" y="50" width="500" height="60" rx="10" ry="10"/>
  <rect class="st0" x="80" y="70" width="100" height="20" rx="5" ry="5"/>
  <rect class="st2" x="350" y="70" width="40" height="20" rx="5" ry="5"/>
  <rect class="st2" x="410" y="70" width="40" height="20" rx="5" ry="5"/>
  <rect class="st2" x="470" y="70" width="40" height="20" rx="5" ry="5"/>
  
  <!-- Photo gallery grid -->
  <rect class="st4" x="80" y="130" width="130" height="90" rx="5" ry="5"/>
  <rect class="st4" x="230" y="130" width="130" height="90" rx="5" ry="5"/>
  <rect class="st4" x="380" y="130" width="130" height="90" rx="5" ry="5"/>
  
  <rect class="st4" x="80" y="240" width="130" height="90" rx="5" ry="5"/>
  <rect class="st4" x="230" y="240" width="130" height="90" rx="5" ry="5"/>
  <rect class="st4" x="380" y="240" width="130" height="90" rx="5" ry="5"/>
  
  <!-- Camera icon overlay -->
  <circle class="st0" cx="145" cy="175" r="20" opacity="0.8"/>
  <path class="st2" d="M135,175 L155,175 M145,165 L145,185" stroke="#FFFFFF" stroke-width="2"/>
  
  <circle class="st0" cx="295" cy="175" r="20" opacity="0.8"/>
  <path class="st2" d="M285,175 L305,175 M295,165 L295,185" stroke="#FFFFFF" stroke-width="2"/>
  
  <circle class="st0" cx="445" cy="175" r="20" opacity="0.8"/>
  <path class="st2" d="M435,175 L455,175 M445,165 L445,185" stroke="#FFFFFF" stroke-width="2"/>
  
  <circle class="st0" cx="145" cy="285" r="20" opacity="0.8"/>
  <path class="st2" d="M135,285 L155,285 M145,275 L145,295" stroke="#FFFFFF" stroke-width="2"/>
  
  <circle class="st0" cx="295" cy="285" r="20" opacity="0.8"/>
  <path class="st2" d="M285,285 L305,285 M295,275 L295,295" stroke="#FFFFFF" stroke-width="2"/>
  
  <circle class="st0" cx="445" cy="285" r="20" opacity="0.8"/>
  <path class="st2" d="M435,285 L455,285 M445,275 L445,295" stroke="#FFFFFF" stroke-width="2"/>
</svg>